<?xml version="1.0" encoding="utf-8"?>
<!-- Generator: Adobe Illustrator 25.0.0, SVG Export Plug-In . SVG Version: 6.00 Build 0)  -->
<svg version="1.1" id="Layer_1" xmlns="http://www.w3.org/2000/svg" xmlns:xlink="http://www.w3.org/1999/xlink" x="0px" y="0px"
	 viewBox="0 0 24 24" style="enable-background:new 0 0 24 24;" xml:space="preserve">
<style type="text/css">
	.st0{fill:#FFFFFF;}
</style>
<path class="st0" d="M14.6,24c-5.1,0-7-3.8-7-6.4V9.7H5.1V6.6c3.6-1.3,4.5-4.6,4.7-6.5C9.8,0.1,9.9,0,10,0h3.5v6.1h4.8v3.6h-4.8v7.5
	c0,1,0.4,2.4,2.2,2.4h0.1c0.6,0,1.5-0.2,1.9-0.4l1.2,3.4c-0.4,0.6-2.4,1.4-4.2,1.4L14.6,24C14.6,24,14.6,24,14.6,24z"/>
</svg>
